# xmcd
#
# Track frame offsets: 
#        150
#        17095
#        31361
#        45197
#        61571
#        75374
#        90388
#        108333
#        124139
#        135885
#        145959
#        160168
#        172873
#        203650
#        224692
#        253373
#        267209
#        285060
#        303010
#
# Disc length: 4341 seconds
#
# Revision: 0
# Processed by: cddbd v1.5.2PL0 Copyright (c) Steve Scherf et al.
# Submitted via: ExactAudioCopyFreeDBPlugin 1.0
#
DISCID=ea10f313
DTITLE=Holiday, Billie - Long Play Collection-6 Originals CD1
DYEAR=1900
DGENRE=Blues
TTITLE0=Lady Sings The Blues
TTITLE1=Trav'lin' Light
TTITLE2=I Must Have That Man
TTITLE3=Some Other Spring
TTITLE4=Strange Fruit
TTITLE5=No Good Man
TTITLE6=God Bless The Child
TTITLE7=Good Morning Heartache
TTITLE8=Love Me Or Leave Me
TTITLE9=Too Marvelous For Words
TTITLE10=Willow Weep For Me
TTITLE11=I Thought About You
TTITLE12=I Wished On The Moon
TTITLE13=Ain't Misbehavin'
TTITLE14=Everything Happens To Me
TTITLE15=Say It Isn't So
TTITLE16=I've Got My Love To Keep Me Warm
TTITLE17=Always
TTITLE18=Do Nothin' Till You Hear From Me
EXTD=
EXTT0=
EXTT1=
EXTT2=
EXTT3=
EXTT4=
EXTT5=
EXTT6=
EXTT7=
EXTT8=
EXTT9=
EXTT10=
EXTT11=
EXTT12=
EXTT13=
EXTT14=
EXTT15=
EXTT16=
EXTT17=
EXTT18=
PLAYORDER=
